# xmcd CD database file
#
# Track frame offsets:
#	150
#	20478
#	39465
#	62813
#	84910
#	102300
#	121538
#	138895
#	158915
#	174938
#
# Disc length: 2589 seconds
#
# Revision: 2
# Processed by: cddbd v1.5.2PL0 Copyright (c) Steve Scherf et al.
# Submitted via: CDex 1.75
#
DISCID=700a1b0a
DTITLE=Casiopea - Wind and Quite Storm Disc 2
DYEAR=1991
DGENRE=Jazz
TTITLE0=Reflections of You
TTITLE1=Lakai
TTITLE2=Any Moment (We'll Be One)
TTITLE3=Span of a Dream
TTITLE4=Kauai
TTITLE5=Long Term Memory
TTITLE6=What Can't Speak Can't Lie
TTITLE7=Twilight Solitude
TTITLE8=North Sea
TTITLE9=Lunar Shade
EXTD=YEAR: 1991
EXTT0=
EXTT1=
EXTT2=
EXTT3=
EXTT4=
EXTT5=
EXTT6=
EXTT7=
EXTT8=
EXTT9=
PLAYORDER=
